<?xml version="1.0" encoding="utf-8" ?><svg xmlns="http://www.w3.org/2000/svg" xmlns:xlink="http://www.w3.org/1999/xlink" width="549" height="557" viewBox="0 0 549 557"><path fill="#4f46e5" d="M476.861 110.012C480.597 110.011 503.817 109.37 505.166 110.924C506.053 111.946 506.022 113.777 505.989 115.068C505.846 120.637 504.88 126.032 504.301 131.549C502.372 149.927 500.55 163.725 486.171 177.135C480.727 182.313 474.105 186.091 466.878 188.142C456.468 191.001 441.958 189.847 430.757 189.984C422.508 190.084 411.807 190.281 403.644 189.979L390.379 313.79L387.197 343.906C386.013 355.194 385.042 365.494 382.289 376.573C379.213 388.725 374.325 400.344 367.79 411.04C347.998 443.389 316.268 466.643 279.465 475.773C273.559 477.238 244.966 481.914 241.086 478.775C240.473 478.279 240.443 478.088 240.333 477.359C240.601 476.81 241.091 476.192 241.632 475.904C246.122 473.508 250.13 470.719 254.232 467.693C257.492 465.295 260.599 462.696 263.537 459.912C295.947 429.626 304.97 389.048 307.563 346.432C307.762 343.153 308.277 340.004 308.393 336.693C308.371 330.955 310.056 325.089 310.74 319.38C311.499 313.048 313.876 278.583 316.736 275.465C316.806 275.387 316.883 275.316 316.956 275.24C319.703 272.367 323.051 270.171 325.876 267.375C329.511 263.777 333.175 260.169 336.737 256.499C338.928 254.242 341.01 251.814 343.334 249.695C344.189 248.915 345.659 247.491 346.814 247.353C348.388 248.911 346.316 259.766 346.054 262.317L341.189 305.608L336.598 349.645C335.524 359.747 334.503 369.72 332.874 379.753C331.642 387.54 330.05 395.266 328.103 402.906C327.061 407.043 325.008 413.556 324.444 417.577C325.51 418.399 327.049 417.285 327.839 416.468C337.983 405.983 346.927 392.577 351.674 378.731C355.985 366.157 357.205 352.689 358.603 339.569L361.843 309.12L367.558 254.524C369.206 239.173 371.336 223.996 371.978 208.563C372.132 204.846 372.837 200.897 373.317 197.199C373.721 194.094 373.981 190.714 374.7 187.678C376.873 178.417 382.705 170.432 390.863 165.544C394.168 163.587 399.88 161.195 403.692 160.779C408.258 160.281 413.626 161.088 418.38 161.124C426.633 161.187 434.766 161.187 443.022 161.204C453.325 161.225 458.749 162.223 467.087 155.053C472.251 150.613 473.839 145.559 474.34 138.988C465.971 139.313 456.804 138.687 448.3 138.729C445.317 138.744 430.708 139.781 429.184 139.05L429.092 138.481C430.365 134.907 437.957 127.625 440.597 124.103C443.297 120.501 446.988 116.533 449.879 113.051C452.116 110.357 455.762 109.876 458.992 110.028C464.952 110.03 470.905 110.013 476.861 110.012Z"/><path fill="#4f46e5" d="M287.529 208.354C288.755 208.277 291.634 207.933 292.508 208.639C292.856 211.016 292.26 218.355 292.153 221.188C291.515 238.089 289.945 254.693 281.526 269.736C268.247 293.462 241.509 304.139 215.851 307.918C203.926 309.675 191.839 310.101 179.827 310.983C171.323 311.607 160.555 311.47 152.484 313.539C141.771 316.285 131.13 324.154 125.645 333.862C120.032 343.661 118.68 356.374 121.687 367.123C129.904 396.497 165.919 408.863 189.624 388.415C204.647 375.457 206.01 360.977 206.383 342.156C206.441 339.206 206.845 336.266 206.965 333.317C207.235 331.18 206.75 326.258 207.815 324.512C208.627 323.181 216.314 322.215 218.057 321.868C224.057 320.675 230.075 319.725 235.981 318.244C236.101 328.38 235.023 338.392 234.885 348.533C234.8 354.84 234.312 362.574 232.945 368.735C231.546 376.46 228.974 383.926 225.318 390.873C207.194 425.095 163.041 438.127 129.221 419.47C115.293 411.786 104.193 399.991 97.8231 385.37C96.4185 382.146 94.7301 378.991 93.7922 375.561C86.5628 347.593 94.1094 321.149 115.455 301.495C136.626 282.002 160.483 282.502 187.42 281.217C200.445 280.595 214.639 278.679 227.254 275.4C241.694 271.704 258.375 260.278 260.553 244.267C263.029 226.055 267.996 213.898 287.529 208.354Z"/><path fill="#4f46e5" d="M288.088 287.437L288.542 287.618C288.467 295.047 287.922 302.19 287.5 309.587C287.286 313.334 287.605 317.261 287.388 320.988C287.198 323.88 286.489 326.879 286.421 329.769C286.295 335.133 286.088 340.398 285.538 345.742C284.582 355.04 284.727 364.184 283.529 373.493C280.57 396.149 271.459 417.56 257.187 435.399C246.52 448.489 237.355 455.769 222.701 463.972C207.255 472.619 193.885 477.482 176.116 479.252C142.558 482.615 109.057 472.333 83.1597 450.723C62.6767 433.931 45.9371 407.206 43.5268 380.515C41.386 356.808 48.1675 338.378 63.0759 320.323C74.0826 308.288 83.5553 302.662 98.6166 297.034C96.4474 300.019 92.5643 304.027 90.0798 307.203C81.693 317.739 75.9 329.138 72.6632 342.253C60.9212 389.832 93.9942 436.139 140.274 447.306C164.746 453.266 190.584 449.183 212.027 435.97C233.793 422.401 248.948 400.403 253.874 375.228C255.813 364.989 256.159 351.368 256.804 340.536L257.91 322.48C258.153 319.072 258.33 315.813 258.996 312.427C259.506 309.073 264.478 306.207 267.496 304.519C275.053 300.294 281.086 291.697 288.088 287.437Z"/><path fill="#4f46e5" d="M234.593 109.994C239.552 109.572 245.966 110.096 251.077 110.069C261.268 110.016 271.438 110.128 281.632 109.878C285.94 109.772 290.581 110.652 294.913 110.671C311.661 109.914 328.427 109.829 345.178 109.884C356.41 109.921 358.612 116.716 365.648 124.083C369.989 128.63 375.724 132.893 377.627 139.074C373.135 139.364 365.294 138.897 360.492 138.835L328.816 138.743C306.618 138.74 285.017 138.23 262.863 140.047C249.893 141.111 232.703 137.09 219.967 142.597C212.63 145.77 205.639 152.375 202.841 159.782C208.791 161.956 215.641 161.08 221.943 161.122L256.35 161.186C258.257 161.25 259.489 161.211 261.397 161.085C256.008 168.835 250.261 174.96 247.059 184.33C241.452 200.735 241.803 218.82 240.625 235.954C240.35 239.958 240.396 251.377 238.875 254.608C237.075 258.43 213.772 266.793 210.543 264.203C209.645 261.996 214.138 197.989 214.317 190.099C204.167 189.617 194.146 189.681 183.988 189.873C179.028 189.966 174.141 189.979 169.199 189.491C169.081 183.941 170.138 179.432 170.606 174.177C173.964 136.499 196.21 112.811 234.593 109.994Z"/><path fill="#4f46e5" d="M497.595 40.5927L498.461 40.5576L498.578 40.8737C497.314 42.5271 485.769 50.956 483.338 52.9677C475.041 59.8769 467.111 67.2157 459.581 74.9542C446.622 88.5193 435.432 102.052 423.581 116.57L413.068 129.509C410.877 132.236 407.289 137.086 404.745 139.118C399.025 135.76 389.956 124.36 384.927 119.269C381.269 115.565 375.987 110.492 372.662 106.605C369.759 103.279 365.225 99.2659 363.344 95.4151C364.963 91.5374 369.113 88.319 372.037 85.1696C373.108 83.999 378.395 78.6121 380.029 79.3509C383.782 81.0477 389.992 88.7606 392.513 91.6483C396.01 95.6548 400.692 99.5841 403.225 103.772C405.769 100.774 410.545 96.5913 413.536 93.7094C417.749 89.6484 422.599 84.3122 426.904 80.5401C441.631 67.4782 458.178 56.6277 476.028 48.3292C482.896 45.0939 490.113 41.9979 497.595 40.5927Z"/><path fill="#4f46e5" d="M362.072 160.581C367.323 160.165 376.609 160.426 381.823 161.002C375.349 169.506 333.771 188.091 322.022 189.898C312.051 191.433 292.537 188.415 281.909 191.135C278.682 191.962 275.94 193.457 273.122 195.191C269.086 197.725 265.927 200.909 261.856 203.565C263.658 187.565 273.149 167.7 289.929 162.584C300.212 159.45 313.728 161.18 324.535 161.176C337.239 161.172 349.346 161.484 362.072 160.581Z"/><path fill="#4f46e5" d="M360.213 187.995C360.317 187.983 360.752 188.07 360.875 188.091C362.312 190.836 360.359 204.923 359.894 208.733C359.036 215.755 359.922 223.178 358.35 230.039C358.246 230.493 357.504 231.044 357.013 231.019C353.534 230.701 350.022 226.325 347.22 224.272L346.888 224.031C343.211 229.135 337.433 237.596 333.936 242.391C330.137 247.601 298.12 275.308 293.692 274.763C293.589 273.863 293.797 273.886 294.328 272.897C297.038 267.176 299.462 260.922 301.112 254.798C301.945 251.703 302.566 245.691 303.804 243.049C306.356 237.6 313.441 232.429 317.644 227.688C321.33 223.53 325.289 216.752 328.676 213.177C326.615 212.368 318.238 207.943 317.124 206.295L317.277 205.647C318.832 203.984 322.216 203.328 324.416 202.578C332.508 199.818 340.262 196.231 348.114 192.861C352.302 191.064 355.722 189.055 360.213 187.995Z"/></svg>